<svg width="543" height="311" viewBox="0 0 543 311" fill="none" xmlns="http://www.w3.org/2000/svg">
<path d="M525.45 241.784H17.0851C12.5555 241.779 8.21282 239.913 5.00988 236.595C1.80693 233.278 0.00523029 228.78 0 224.088V17.6962C0.00523029 13.0046 1.80693 8.50659 5.00988 5.18908C8.21282 1.87157 12.5555 0.00541737 17.0851 0H525.45C529.979 0.00541737 534.322 1.87157 537.525 5.18908C540.728 8.50659 542.53 13.0046 542.535 17.6962V224.088C542.53 228.78 540.728 233.278 537.525 236.595C534.322 239.913 529.979 241.779 525.45 241.784Z" fill="#F2F2F2"/>
<path d="M406.888 230.498H97.7801C74.7458 230.471 52.6624 220.981 36.3747 204.111C20.087 187.241 10.9252 164.367 10.8992 140.509V101.285C10.9251 77.4264 20.0869 54.553 36.3746 37.6826C52.6623 20.8122 74.7457 11.3225 97.7801 11.2954H444.757C467.792 11.3225 489.875 20.8122 506.163 37.6826C522.451 54.553 531.612 77.4264 531.638 101.285C531.601 135.542 518.446 168.386 495.058 192.609C471.671 216.833 439.962 230.459 406.888 230.498Z" fill="white"/>
<path d="M327.15 70.3787H122.827C121.658 70.3787 120.537 69.8979 119.711 69.042C118.885 68.1861 118.42 67.0253 118.42 65.8148C118.42 64.6044 118.885 63.4436 119.711 62.5877C120.537 61.7318 121.658 61.251 122.827 61.251H327.15C328.319 61.251 329.44 61.7318 330.266 62.5877C331.093 63.4436 331.557 64.6044 331.557 65.8148C331.557 67.0253 331.093 68.1861 330.266 69.042C329.44 69.8979 328.319 70.3787 327.15 70.3787Z" fill="#E6E6E6"/>
<path d="M430.583 119.072H122.827C121.658 119.072 120.537 118.591 119.711 117.735C118.885 116.879 118.42 115.719 118.42 114.508C118.42 113.298 118.885 112.137 119.711 111.281C120.537 110.425 121.658 109.944 122.827 109.944H430.583C431.751 109.944 432.872 110.425 433.698 111.281C434.525 112.137 434.989 113.298 434.989 114.508C434.989 115.719 434.525 116.879 433.698 117.735C432.872 118.591 431.751 119.072 430.583 119.072Z" fill="#E6E6E6"/>
<path d="M430.583 167.765H122.827C121.658 167.765 120.537 167.285 119.711 166.429C118.885 165.573 118.42 164.412 118.42 163.202C118.42 161.991 118.885 160.83 119.711 159.974C120.537 159.119 121.658 158.638 122.827 158.638H430.583C431.751 158.638 432.872 159.119 433.698 159.974C434.525 160.83 434.989 161.991 434.989 163.202C434.989 164.412 434.525 165.573 433.698 166.429C432.872 167.285 431.751 167.765 430.583 167.765Z" fill="#E6E6E6"/>
<path d="M430.583 167.765H122.827C121.658 167.765 120.537 167.285 119.711 166.429C118.885 165.573 118.42 164.412 118.42 163.202C118.42 161.991 118.885 160.83 119.711 159.974C120.537 159.119 121.658 158.638 122.827 158.638H430.583C431.751 158.638 432.872 159.119 433.698 159.974C434.525 160.83 434.989 161.991 434.989 163.202C434.989 164.412 434.525 165.573 433.698 166.429C432.872 167.285 431.751 167.765 430.583 167.765Z" fill="#E6E6E6"/>
<path d="M305.589 124.661C305.638 126.036 305.977 127.382 306.583 128.607C307.189 129.831 308.047 130.903 309.096 131.746C310.145 132.59 311.36 133.185 312.655 133.49C313.95 133.795 315.294 133.802 316.592 133.51L333.396 162.063L340.547 146.344L323.494 121.64C322.877 119.414 321.493 117.499 319.604 116.26C317.715 115.02 315.453 114.541 313.246 114.913C311.039 115.286 309.041 116.484 307.629 118.28C306.218 120.077 305.492 122.347 305.589 124.661Z" fill="#FFB6B6"/>
<path d="M431.69 206.491L373.781 173.957L355.516 156.207C355.516 156.207 347.575 154.005 350.498 151.33C353.42 148.656 345.092 146.077 345.092 146.077L335.286 136.548L321.353 146.76L325.385 153.234C325.385 153.234 325.108 163.952 330.777 161.89C336.445 159.828 335.029 168.718 335.029 168.718L368.865 223.044L431.69 206.491Z" fill="#3F3D56"/>
<path d="M260.75 175.839C291.989 175.839 317.313 149.609 317.313 117.252C317.313 84.8958 291.989 58.6658 260.75 58.6658C229.511 58.6658 204.187 84.8958 204.187 117.252C204.187 149.609 229.511 175.839 260.75 175.839Z" fill="#8EAE7B"/>
<path d="M419.83 277.474H359.854V310.605H419.83V277.474Z" fill="#FFB6B6"/>
<path d="M420.304 277.869L426.696 258.005L431.263 251.383L433.089 232.465C433.089 181.386 422.089 189.892 422.089 189.892L415.737 171.927L386.514 170.981L367.792 189.426L352.267 195.102L346.188 227.821L357.29 262.734L360.03 281.653C354.803 291.646 355.245 286.919 359.573 294.422L411.171 309.084C429.436 315.705 429.436 298.679 425.774 294.422C422.111 290.166 420.304 277.869 420.304 277.869Z" fill="#3F3D56"/>
<path d="M397.35 164.631C412.313 164.631 424.442 152.068 424.442 136.571C424.442 121.073 412.313 108.51 397.35 108.51C382.388 108.51 370.259 121.073 370.259 136.571C370.259 152.068 382.388 164.631 397.35 164.631Z" fill="#FFB6B6"/>
<path d="M433.518 174.027C433.773 174.473 433.928 174.973 433.971 175.489C434.014 176.006 433.943 176.526 433.765 177.011C433.587 177.495 433.305 177.932 432.942 178.288C432.578 178.645 432.141 178.911 431.664 179.068C428.03 180.317 425.792 183.959 423.18 186.872C420.577 189.776 416.386 192.188 413.061 190.211C409.746 188.244 409.518 183.221 406.742 180.497C404.039 177.848 399.545 178.17 396.367 180.185L396.272 180.245C395.724 180.616 395.082 180.811 394.428 180.808C393.773 180.805 393.133 180.603 392.588 180.228C392.042 179.852 391.615 179.319 391.359 178.695C391.103 178.071 391.03 177.382 391.147 176.715C392.261 170.581 393.374 164.448 394.486 158.315C391.563 165.608 387.319 172.255 381.984 177.895C380.514 179.652 378.652 181.01 376.559 181.849C374.66 182.474 372.815 180.44 370.97 180.809C375.555 176.656 390.97 150.038 388.212 132.246C384.97 132.624 381.728 133.003 378.486 133.381C378.135 131.792 377.385 130.327 376.313 129.134C376.444 130.68 376.254 132.238 375.755 133.702C374.404 133.863 373.043 134.015 371.692 134.175C369.81 134.393 367.764 134.582 366.148 133.561C363.454 131.858 363.372 127.828 364.139 124.65C366.386 115.409 373.198 107.68 381.536 103.632C389.874 99.593 392.34 108.589 401.125 105.713C418.477 100.038 431.774 109.743 436.459 127.753C440.395 142.859 437.536 158.892 433.518 174.027Z" fill="#2F2E41"/>
<path d="M513.487 307.854H480.313L480.171 307.586C479.747 306.789 479.337 305.945 478.955 305.077C475.538 297.5 474.093 288.834 472.819 281.188L471.859 275.425C471.743 274.727 471.831 274.009 472.111 273.363C472.391 272.717 472.851 272.172 473.431 271.798C474.012 271.424 474.687 271.239 475.371 271.265C476.054 271.291 476.715 271.527 477.267 271.944C482.309 275.744 487.352 279.54 492.397 283.332C494.308 284.772 496.489 286.438 498.579 288.239C498.781 287.225 498.991 286.207 499.202 285.205C499.348 284.512 499.689 283.88 500.183 283.39C500.677 282.9 501.302 282.573 501.976 282.452C502.65 282.332 503.344 282.422 503.968 282.712C504.592 283.002 505.119 283.478 505.48 284.08L509.362 290.539C512.193 295.256 514.691 299.904 514.182 304.917C514.185 304.978 514.18 305.039 514.169 305.099C514.067 305.922 513.878 306.731 513.606 307.512L513.487 307.854Z" fill="#F0F0F0"/>
<path d="M534.326 309.965L219.096 310.283C218.781 310.282 218.48 310.151 218.258 309.92C218.036 309.689 217.912 309.376 217.912 309.05C217.912 308.725 218.036 308.412 218.258 308.181C218.48 307.95 218.781 307.819 219.096 307.818L534.326 307.5C534.641 307.501 534.942 307.632 535.164 307.863C535.386 308.094 535.51 308.406 535.51 308.732C535.51 309.058 535.386 309.371 535.164 309.602C534.942 309.833 534.641 309.963 534.326 309.965Z" fill="#CACACA"/>
<path d="M255.608 196.105L220.934 165.776C219.749 164.737 219.01 163.253 218.879 161.651C218.749 160.048 219.238 158.457 220.238 157.227L226.62 149.4C227.623 148.172 229.055 147.407 230.603 147.272C232.15 147.137 233.686 147.643 234.873 148.679L269.547 179.009C270.732 180.048 271.471 181.531 271.602 183.134C271.732 184.736 271.243 186.327 270.243 187.557L263.861 195.384C262.858 196.612 261.426 197.377 259.878 197.512C258.331 197.648 256.795 197.141 255.608 196.105Z" fill="#3F3D56"/>
<path d="M222.753 157.859C222.214 158.521 221.951 159.379 222.021 160.242C222.091 161.106 222.49 161.905 223.128 162.465L257.802 192.795C258.442 193.353 259.27 193.626 260.104 193.553C260.937 193.48 261.709 193.068 262.25 192.406L268.632 184.579C269.171 183.916 269.434 183.059 269.364 182.195C269.293 181.332 268.895 180.532 268.257 179.972L233.583 149.643C232.943 149.085 232.115 148.812 231.281 148.885C230.448 148.957 229.676 149.37 229.135 150.031L222.753 157.859Z" fill="white"/>
<path d="M243.109 169.649C242.989 169.823 242.831 169.966 242.648 170.066C242.465 170.167 242.262 170.221 242.055 170.226L236.607 170.356C236.432 170.36 236.258 170.328 236.095 170.263C235.932 170.197 235.782 170.099 235.656 169.974C235.529 169.849 235.428 169.699 235.357 169.533C235.286 169.367 235.248 169.188 235.244 169.007C235.24 168.826 235.27 168.645 235.334 168.476C235.397 168.307 235.492 168.153 235.613 168.022C235.733 167.891 235.878 167.785 236.038 167.712C236.198 167.639 236.371 167.599 236.546 167.595L240.11 167.51L236.6 157.917C236.476 157.575 236.488 157.196 236.633 156.862C236.778 156.529 237.045 156.269 237.375 156.14C237.706 156.01 238.072 156.021 238.394 156.171C238.716 156.321 238.967 156.597 239.093 156.938L243.271 168.356C243.347 168.563 243.373 168.785 243.349 169.005C243.324 169.224 243.249 169.434 243.13 169.617L243.109 169.649Z" fill="#8EAE7B"/>
<path d="M243.808 172.06C245.122 172.26 246.378 172.755 247.487 173.512C248.596 174.269 249.531 175.269 250.227 176.441C250.922 177.613 251.362 178.928 251.513 180.295C251.665 181.662 251.525 183.046 251.105 184.351L276.681 204.757L260.817 210.411L238.962 190.167C236.892 189.289 235.205 187.656 234.221 185.576C233.237 183.497 233.023 181.115 233.62 178.884C234.217 176.652 235.585 174.724 237.462 173.467C239.34 172.209 241.598 171.708 243.808 172.06Z" fill="#FFB6B6"/>
<path d="M376.963 182.149L311.48 223.851C311.48 223.851 285.078 213.733 290.238 209.049C295.397 204.365 278.971 201.198 278.971 201.198L260.825 188.553L250.296 201.228C250.296 201.228 252.214 221.817 255.479 218.252C258.743 214.687 263.623 224.425 263.623 224.425C263.623 224.425 265.065 235.299 274.358 232.563C283.651 229.826 308.586 258.509 308.586 258.509L389.176 227.377L376.963 182.149Z" fill="#3F3D56"/>
<path d="M258.761 140.753C258.001 140.753 257.253 140.57 256.574 140.219C255.895 139.867 255.304 139.356 254.849 138.727L242.856 122.164C242.471 121.632 242.19 121.026 242.031 120.382C241.872 119.738 241.836 119.067 241.927 118.409C242.018 117.75 242.233 117.117 242.56 116.545C242.887 115.972 243.32 115.472 243.834 115.073C244.872 114.267 246.176 113.921 247.459 114.111C248.095 114.206 248.707 114.428 249.259 114.767C249.812 115.106 250.295 115.554 250.68 116.087L258.526 126.922L278.678 95.6126C279.398 94.4949 280.516 93.719 281.788 93.4556C283.06 93.1921 284.38 93.4627 285.46 94.2079C286.539 94.953 287.288 96.1116 287.542 97.4289C287.797 98.7461 287.535 100.114 286.816 101.232L262.83 138.498C262.396 139.172 261.812 139.728 261.128 140.121C260.444 140.513 259.678 140.729 258.897 140.752C258.851 140.753 258.806 140.753 258.761 140.753Z" fill="white"/>
</svg>
