<svg xmlns="http://www.w3.org/2000/svg" viewBox="0 0 64 80" x="0px" y="0px"><title>Introduction</title><g data-name="Layer 35"><path d="M57.9043,25.514a10.89363,10.89363,0,0,0-9.085-12.33106,1.00036,1.00036,0,0,1,.26953-1.98242,12.89972,12.89972,0,0,1,10.7998,14.56934A1.0004,1.0004,0,0,1,57.9043,25.514Z" fill="white"/><path d="M53.62988,24.87047A6.09273,6.09273,0,0,0,52.55176,19.931a5.96111,5.96111,0,0,0-4.38965-2.28223.99966.99966,0,0,1,.14258-1.99414,7.93191,7.93191,0,0,1,5.834,3.05957,8.06441,8.06441,0,0,1,1.4541,6.53516A.99957.99957,0,0,1,53.62988,24.87047Z" fill="white"/><path d="M14.542,55.98375A12.90709,12.90709,0,0,1,4.168,41.10289a.99962.99962,0,0,1,1.97461.3125A10.90456,10.90456,0,0,0,14.86816,54.0111.99975.99975,0,0,1,14.542,55.98375Z" fill="white"/><path d="M15.45313,51.555a7.93822,7.93822,0,0,1-5.74219-3.22949,8.06929,8.06929,0,0,1-1.26465-6.57519.99963.99963,0,0,1,1.95117.43554,6.10112,6.10112,0,0,0,.93457,4.96875,5.96538,5.96538,0,0,0,4.32227,2.41016A1.00021,1.00021,0,0,1,15.45313,51.555Z" fill="white"/><path d="M35.98519,11.85872a68.3846,68.3846,0,0,1,.936,8.63374,65.83564,65.83564,0,0,0,.81481,8.32928c.51847,2.87534,1.34238,6.65132,2.26692,6.49633.902-.15122,1.5078-4.35694,2.01141-5.7971,1.16919-3.34352,2.5701-4.935,3.40145-5.52965.63044-.45092,2.3342-1.215,3.27249-.38213a1.26408,1.26408,0,0,1,.40227,1.40864,42.76814,42.76814,0,0,0-2.09345,5.64491c-1.82129,6.91143-1.31473,8.42-2.74,12.69554-1.25949,3.77823-2.76886,6.31792-6.89549,8.2874-4.17589,1.993-7.866,2.26732-11.85937.18568-2.50635-1.30651-3.96306-2.69952-6.96843-9.036-2.18138-4.59915-1.536-3.32469-3.56924-7.79219-2.03248-4.46578-3.05939-5.33435-4.99245-9.27873-.50969-1.04-1.50221-3.08728.06155-3.96508,1.76218-.98918,3.02433,1.13564,3.27689,1.54261,2.09772,3.38023,2.07943,4.01421,4.17525,6.999.81332,1.15828,2.25878,2.94578,2.59251,2.78685.55472-.26416-1.75743-5.32713-3.66107-10.79052-.54487-1.56374-.78442-2.32938-1.60539-4.43471-.21816-.55946-1.34876-3.60383.60058-4.32053,1.829-.67246,2.86754,1.249,3.32578,2.19387,1.79213,3.69538,2.30736,4.941,3.23848,7.31313.70661,1.80016,2.85839,6.38687,3.46388,6.34056.82267-.06291-.7186-5.83561-1.391-8.22605a46.51023,46.51023,0,0,1-2.0675-9.062c-.097-.71869-.43346-3.74882,1.44857-4.06865,2.27968-.38741,3.05141,2.489,3.508,3.95273,1.25717,4.03027,1.48467,5.40627,2.35514,8.62977.53811,1.9927,1.67941,7.1076,2.262,7.00436.69606-.12334.35771-4.16378.19921-5.89362a55.121,55.121,0,0,1-.17829-9.55031c.12134-1.95622.77076-3.35087,1.96714-3.46007C35.26656,8.55859,35.8549,11.0019,35.98519,11.85872Z" fill="white"/></g></svg>