<svg width="155" height="155" viewBox="0 0 155 155" fill="none" xmlns="http://www.w3.org/2000/svg">
<path d="M90.055 155C59.985 155 29.9925 155 0 155C0 103.333 0 51.6667 0 0C51.6667 0 103.333 0 155 0C155 51.6667 155 103.333 155 155C133.378 155 111.755 155 90.055 155ZM80.8844 119.892C80.8844 125.955 80.8844 132.018 80.8844 138.141C81.332 138.114 81.694 138.131 82.0401 138.065C85.5582 137.394 89.0708 136.693 92.592 136.039C93.3844 135.892 93.5665 135.52 93.5657 134.738C93.5395 108.931 93.5414 83.1251 93.5391 57.3188C93.539 57.0091 93.5391 56.6994 93.5391 56.3897C93.6071 56.3866 93.6751 56.3835 93.7431 56.3804C100.923 78.9221 108.103 101.464 115.305 124.074C146.227 98.7809 145.281 53.3639 119.416 29.4208C119.416 29.7775 119.416 30.053 119.416 30.3285C119.416 36.5024 119.404 42.6763 119.436 48.8501C119.439 49.4359 119.607 50.08 119.885 50.5963C123.171 56.6957 125.165 63.1901 125.823 70.0787C126.513 77.2969 125.684 84.3595 123.305 91.2109C122.498 93.5376 121.469 95.7879 120.542 98.0731C120.469 98.0532 120.396 98.0332 120.324 98.0133C120.244 97.7796 120.16 97.5472 120.086 97.312C114.623 80.168 109.16 63.0243 103.7 45.8794C100.43 35.6121 97.1614 25.3444 93.9071 15.0722C93.6783 14.3502 93.343 13.892 92.5367 13.7323C89.7307 13.1766 86.9426 12.5305 84.1362 11.9771C83.0907 11.771 82.0135 11.7256 80.8844 11.5995C80.8844 47.7256 80.8844 83.7315 80.8844 119.892ZM52.4119 133.774C52.4119 129.667 52.4003 125.56 52.4251 121.453C52.4287 120.868 52.2815 120.555 51.728 120.272C41.4774 115.023 33.8476 107.201 28.818 96.8417C28.6521 96.5001 28.4991 96.1524 28.3317 95.7893C28.5822 95.6325 28.7727 95.5048 28.9709 95.3902C44.0443 86.673 59.1169 77.9547 74.1982 69.2511C74.6829 68.9713 74.8694 68.6718 74.8661 68.1033C74.8406 63.738 74.8527 59.3726 74.8504 55.0072C74.8503 54.7704 74.8265 54.5336 74.8091 54.2109C58.0083 63.9289 41.3128 73.586 24.5964 83.2552C22.561 72.6259 24.1924 58.6651 32.338 46.7235C42.4868 31.8451 56.8134 24.537 74.7453 23.9603C74.7453 19.7964 74.7453 15.604 74.7453 11.413C46.2551 10.8779 16.3379 31.8301 11.7097 66.6217C7.4444 98.6859 27.7174 125.694 52.3835 134.3C52.3931 134.167 52.4024 134.04 52.4119 133.774Z" fill="#8D00FE"/>
<path d="M80.8844 119.815C80.8844 83.7315 80.8844 47.7255 80.8844 11.5995C82.0135 11.7256 83.0907 11.7709 84.1362 11.9771C86.9426 12.5304 89.7307 13.1765 92.5367 13.7322C93.343 13.8919 93.6784 14.3501 93.9071 15.0721C97.1614 25.3444 100.43 35.6121 103.7 45.8794C109.16 63.0242 114.623 80.168 120.086 97.312C120.161 97.5471 120.244 97.7795 120.324 98.0132C120.396 98.0332 120.469 98.0531 120.542 98.0731C121.47 95.7878 122.498 93.5376 123.305 91.2108C125.684 84.3595 126.513 77.2968 125.823 70.0787C125.165 63.1901 123.171 56.6957 119.885 50.5962C119.607 50.0799 119.439 49.4358 119.436 48.85C119.404 42.6763 119.417 36.5023 119.417 30.3285C119.417 30.0529 119.417 29.7774 119.417 29.4207C145.281 53.3638 146.227 98.7809 115.305 124.074C108.103 101.464 100.923 78.9221 93.7431 56.3803C93.6751 56.3835 93.6071 56.3866 93.5391 56.3897C93.5391 56.6993 93.5391 57.009 93.5391 57.3187C93.5414 83.125 93.5396 108.931 93.5657 134.738C93.5665 135.52 93.3844 135.892 92.5921 136.039C89.0708 136.693 85.5582 137.394 82.0401 138.065C81.694 138.131 81.332 138.114 80.8844 138.141C80.8844 132.017 80.8844 125.955 80.8844 119.815Z" fill="white"/>
<path d="M52.4118 133.843C52.4024 134.04 52.3931 134.167 52.3835 134.3C27.7174 125.694 7.44438 98.6859 11.7097 66.6217C16.3378 31.8301 46.2551 10.8778 74.7453 11.413C74.7453 15.604 74.7453 19.7964 74.7453 23.9603C56.8134 24.537 42.4868 31.8451 32.338 46.7235C24.1924 58.6651 22.561 72.6259 24.5964 83.2552C41.3128 73.586 58.0083 63.9289 74.8091 54.2109C74.8265 54.5336 74.8503 54.7704 74.8504 55.0072C74.8527 59.3726 74.8406 63.738 74.8661 68.1033C74.8694 68.6718 74.6829 68.9713 74.1981 69.2511C59.1169 77.9546 44.0442 86.673 28.9709 95.3902C28.7727 95.5048 28.5822 95.6324 28.3317 95.7893C28.4991 96.1524 28.6521 96.5001 28.8179 96.8417C33.8476 107.201 41.4774 115.023 51.728 120.272C52.2814 120.555 52.4286 120.868 52.4251 121.453C52.4003 125.56 52.4119 129.667 52.4118 133.843Z" fill="white"/>
</svg>
